<?xml version="1.0" encoding="utf-8"?>
<!-- Generator: Adobe Illustrator 15.0.0, SVG Export Plug-In . SVG Version: 6.00 Build 0)  -->
<!DOCTYPE svg PUBLIC "-//W3C//DTD SVG 1.1//EN" "http://www.w3.org/Graphics/SVG/1.1/DTD/svg11.dtd">
<svg version="1.1" xmlns="http://www.w3.org/2000/svg" xmlns:xlink="http://www.w3.org/1999/xlink" x="0px" y="0px" width="205px"
	 height="50px" viewBox="0 0 205 50" enable-background="new 0 0 205 50" xml:space="preserve">
<symbol  id="Bush_Left" viewBox="-43.3 -24.308 86.601 48.615">
	<g>
		<g>
			<path fill="#00A651" d="M-33.888-3.511c8.299,8.895,13.237,21.557,13.237,21.557C-24.14,7.54-28.211,2.316-34.923-6.174
				L-33.888-3.511z"/>
			<path fill="#00A651" d="M-30.487,3.161c0.297,2.265,2.376,11.441,2.376,11.441l-2.153-5.593
				c-0.479-2.881,0.761-5.555,0.447-7.952L-30.487,3.161z"/>
			<path fill="#00A651" d="M-27.667,8.564c0.297,2.266,1.726,9.829,1.726,9.829l-0.53-3.791c0-2.44-0.211-5.744-0.526-8.142
				L-27.667,8.564z"/>
			<path fill="#00A651" d="M-24.188,13.377c0.216,1.381,3.051,6.613,3.051,6.613l-2.181-2.933c0-1.487-0.154-3.501-0.382-4.963
				L-24.188,13.377z"/>
			<path fill="#00A651" d="M-21.167,18.075c0.602,1.176,2.76,6.232,2.76,6.232l-1.281-3.51c-0.313-1.289-0.958-3.02-1.595-4.265
				L-21.167,18.075z"/>
			<path fill="#00A651" d="M-26.043,10.332c0.297,2.266,1.726,9.828,1.726,9.828l-1.161-4.837c0-2.441,0.42-4.697,0.105-7.095
				L-26.043,10.332z"/>
			<path fill="#00A651" d="M-24.522,3.487c1.421,0.866,6.495,3.396,6.495,3.396l-3.35-2.196c-1.774-1.164-5.323-0.626-6.827-1.543
				L-24.522,3.487z"/>
			<path fill="#00A651" d="M-21.855,6.884c1.898,1.261,6.128,5.077,6.128,5.077l-3.163-2.14c-2.187-1.069-5.052-2.709-7.062-4.043
				L-21.855,6.884z"/>
			<path fill="#00A651" d="M-21.837,13.088c1.036,0.934,3.865,6.169,3.865,6.169l-1.263-3.432c-1.244-0.811-2.842-2.037-3.939-3.025
				L-21.837,13.088z"/>
			<path fill="#00A651" d="M-23.271,9.473c1.577,1.009,5.962,5.851,5.962,5.851l-2.632-3.877c-1.816-0.856-3.47-1.16-5.14-2.229
				L-23.271,9.473z"/>
			<path fill="#00A651" d="M-32.966,0.366c0.297,2.265,1.6,12.736,1.6,12.736l-1.376-6.888c-0.479-2.881,0.762-5.555,0.447-7.953
				L-32.966,0.366z"/>
			<path fill="#00A651" d="M-34.966-1.264c0.297,2.266,1.599,12.736,1.599,12.736l-1.376-6.887
				c-0.479-2.882,0.761-5.556,0.447-7.953L-34.966-1.264z"/>
			<path fill="#00A651" d="M-29.402-0.557c1.549,0.605,10.179,4.284,10.179,4.284l-4.82-3.121c-1.949-0.838-5.362-0.453-7.002-1.095
				L-29.402-0.557z"/>
			<path fill="#00A651" d="M-29.97-3.318c1.727,0.743,9.727,4.106,9.727,4.106l-5.13-2.746c-2.171-1.049-4.612-0.291-6.44-1.078
				L-29.97-3.318z"/>
		</g>
		<g>
			<path fill="#00A651" d="M-41.108-9.821c17.332-2.827,35.766-10.603,35.766-10.603C-18.811-13.763-28.099-11.68-43.3-8.345
				L-41.108-9.821z"/>
			<path fill="#00A651" d="M-29.852-13.562c2.399-1.676,13.091-8.003,13.091-8.003l-7.499,3.39
				c-3.164,2.079-4.231,4.895-6.771,6.668L-29.852-13.562z"/>
			<path fill="#00A651" d="M-21.787-16.448c2.399-1.676,10.895-7.041,10.895-7.041l-4.051,2.787
				c-2.23,1.975-5.483,4.535-8.022,6.309L-21.787-16.448z"/>
			<path fill="#00A651" d="M-13.531-18.509c1.501-1.004,9.426-3.744,9.426-3.744l-5.098,1.225c-1.36,1.204-3.371,2.751-4.96,3.813
				L-13.531-18.509z"/>
			<path fill="#00A651" d="M-5.888-20.719c1.742-0.635,8.756-3.589,8.756-3.589l-4.628,2.165c-1.525,0.878-3.821,1.938-5.666,2.609
				L-5.888-20.719z"/>
			<path fill="#00A651" d="M-18.371-17.022c2.399-1.676,10.895-7.041,10.895-7.041l-5.708,3.301
				c-2.23,1.975-3.826,4.021-6.366,5.795L-18.371-17.022z"/>
			<path fill="#00A651" d="M-22.937-10.686c2.367,0.047,10.307,0.671,10.307,0.671l-5.722,0.014
				c-3.032,0.008-6.476-2.295-8.982-2.345L-22.937-10.686z"/>
			<path fill="#00A651" d="M-16.876-12.029c3.258-0.021,11.436-0.882,11.436-0.882l-5.462,0.066
				c-3.403-0.285-8.078-0.468-11.526-0.445L-16.876-12.029z"/>
			<path fill="#00A651" d="M-11.188-17.037c2.003-0.21,9.925-2.956,9.925-2.956L-5.8-17.882c-2.12,0.001-5.014,0.151-7.134,0.374
				L-11.188-17.037z"/>
			<path fill="#00A651" d="M-16.082-14.868c2.671,0.014,11.958-1.595,11.958-1.595l-6.461,1.751
				c-2.797-0.263-4.908-0.889-7.736-0.902L-16.082-14.868z"/>
			<path fill="#00A651" d="M-35.155-12.604c2.399-1.677,13.411-9.46,13.411-9.46l-7.819,4.846c-3.163,2.079-4.231,4.895-6.771,6.668
				L-35.155-12.604z"/>
			<path fill="#00A651" d="M-38.862-12.34c2.399-1.676,13.412-9.459,13.412-9.459l-7.819,4.846
				c-3.164,2.079-4.231,4.894-6.771,6.668L-38.862-12.34z"/>
			<path fill="#00A651" d="M-32.045-9.982c2.271,0.325,15.205,1.892,15.205,1.892l-8.198-0.013c-2.927-0.348-6.361-2.455-8.766-2.8
				L-32.045-9.982z"/>
			<path fill="#00A651" d="M-35.199-8.048C-32.604-7.74-20.658-6.25-20.658-6.25l-8.2-0.479c-3.366-0.294-5.381-2.191-8.127-2.518
				L-35.199-8.048z"/>
		</g>
		<g>
			<path fill="#00A651" d="M-20.024-4.793c13.512-1.991,27.731-7.055,27.731-7.055c-10.5,4.69-17.742,6.158-29.593,8.506
				L-20.024-4.793z"/>
			<path fill="#00A651" d="M-11.401-7.015c1.871-1.181,10.206-5.637,10.206-5.637l-5.846,2.388C-9.508-8.8-10.341-6.817-12.32-5.568
				L-11.401-7.015z"/>
			<path fill="#00A651" d="M-5.113-9.048c1.87-1.18,8.494-4.958,8.494-4.958l-3.158,1.963c-1.739,1.39-4.275,3.192-6.255,4.442
				L-5.113-9.048z"/>
			<path fill="#00A651" d="M1.323-10.499c1.17-0.707,7.349-2.637,7.349-2.637l-3.975,0.862c-1.06,0.848-2.627,1.938-3.867,2.686
				L1.323-10.499z"/>
			<path fill="#00A651" d="M7.281-12.056c1.358-0.447,6.827-2.527,6.827-2.527L10.5-13.059c-1.189,0.618-2.979,1.365-4.417,1.838
				L7.281-12.056z"/>
			<path fill="#00A651" d="M-2.451-9.452c1.871-1.181,8.494-4.959,8.494-4.959l-4.45,2.325c-1.739,1.391-2.982,2.831-4.962,4.08
				L-2.451-9.452z"/>
			<path fill="#00A651" d="M-6.011-4.99c1.846,0.033,8.036,0.473,8.036,0.473l-4.46,0.01c-2.364,0.006-5.049-1.616-7.002-1.651
				L-6.011-4.99z"/>
			<path fill="#00A651" d="M-1.285-5.937c2.54-0.015,8.916-0.62,8.916-0.62L3.372-6.511c-2.653-0.2-6.298-0.329-8.986-0.313
				L-1.285-5.937z"/>
			<path fill="#00A651" d="M3.15-9.463c1.562-0.148,7.737-2.082,7.737-2.082L7.35-10.058c-1.653,0.001-3.909,0.106-5.562,0.263
				L3.15-9.463z"/>
			<path fill="#00A651" d="M-0.666-7.936c2.083,0.01,9.323-1.123,9.323-1.123L3.62-7.825C1.439-8.011-0.207-8.451-2.411-8.461
				L-0.666-7.936z"/>
			<path fill="#00A651" d="M-15.536-6.342c1.871-1.18,10.456-6.661,10.456-6.661l-6.096,3.413c-2.466,1.463-3.299,3.445-5.278,4.695
				L-15.536-6.342z"/>
			<path fill="#00A651" d="M-18.426-6.154c1.87-1.181,10.456-6.662,10.456-6.662l-6.096,3.413c-2.466,1.464-3.299,3.446-5.279,4.695
				L-18.426-6.154z"/>
			<path fill="#00A651" d="M-13.112-4.495c1.771,0.229,11.854,1.332,11.854,1.332l-6.392-0.009
				c-2.282-0.245-4.959-1.729-6.834-1.972L-13.112-4.495z"/>
			<path fill="#00A651" d="M-15.57-3.133c2.022,0.217,11.336,1.267,11.336,1.267l-6.393-0.338c-2.625-0.207-4.195-1.543-6.336-1.772
				L-15.57-3.133z"/>
		</g>
		<g>
			<path fill="#00A651" d="M1.652-2.056c12.235-1.712,25.111-6.067,25.111-6.067C17.255-4.089,10.698-2.826-0.033-0.807L1.652-2.056
				z"/>
			<path fill="#00A651" d="M9.46-3.967c1.694-1.015,9.241-4.848,9.241-4.848l-5.293,2.054c-2.233,1.259-2.987,2.964-4.78,4.039
				L9.46-3.967z"/>
			<path fill="#00A651" d="M15.154-5.715c1.694-1.016,7.691-4.266,7.691-4.266l-2.859,1.688c-1.575,1.196-3.871,2.747-5.664,3.821
				L15.154-5.715z"/>
			<path fill="#00A651" d="M20.982-6.964c1.06-0.607,6.654-2.268,6.654-2.268L24.038-8.49c-0.96,0.729-2.379,1.667-3.501,2.311
				L20.982-6.964z"/>
			<path fill="#00A651" d="M26.378-8.303c1.23-0.385,6.182-2.174,6.182-2.174l-3.268,1.312c-1.076,0.532-2.697,1.174-4,1.581
				L26.378-8.303z"/>
			<path fill="#00A651" d="M17.565-6.063c1.694-1.015,7.691-4.266,7.691-4.266l-4.029,2c-1.575,1.196-2.701,2.436-4.494,3.511
				L17.565-6.063z"/>
			<path fill="#00A651" d="M14.342-2.225c1.671,0.028,7.276,0.406,7.276,0.406L17.579-1.81C15.438-1.805,13.007-3.2,11.238-3.23
				L14.342-2.225z"/>
			<path fill="#00A651" d="M18.621-3.038c2.3-0.013,8.073-0.534,8.073-0.534l-3.856,0.04c-2.402-0.173-5.703-0.283-8.137-0.271
				L18.621-3.038z"/>
			<path fill="#00A651" d="M22.637-6.072c1.414-0.127,7.006-1.791,7.006-1.791l-3.204,1.279c-1.496,0.001-3.539,0.092-5.036,0.227
				L22.637-6.072z"/>
			<path fill="#00A651" d="M19.182-4.758c1.886,0.008,8.442-0.966,8.442-0.966l-4.562,1.06c-1.975-0.158-3.465-0.538-5.461-0.546
				L19.182-4.758z"/>
			<path fill="#00A651" d="M5.717-3.387c1.694-1.016,9.468-5.73,9.468-5.73l-5.52,2.936c-2.233,1.259-2.987,2.964-4.78,4.039
				L5.717-3.387z"/>
			<path fill="#00A651" d="M3.1-3.227c1.694-1.015,9.468-5.73,9.468-5.73l-5.52,2.936c-2.233,1.26-2.987,2.965-4.78,4.04L3.1-3.227z
				"/>
			<path fill="#00A651" d="M7.912-1.799c1.604,0.197,10.733,1.146,10.733,1.146L12.858-0.66c-2.066-0.211-4.49-1.487-6.188-1.696
				L7.912-1.799z"/>
			<path fill="#00A651" d="M5.686-0.627C7.518-0.44,15.951,0.462,15.951,0.462l-5.789-0.29C7.786-0.006,6.364-1.155,4.425-1.353
				L5.686-0.627z"/>
		</g>
		<g>
			<path fill="#00A651" d="M14.001,2.836c11.079-1.473,22.738-5.22,22.738-5.22C28.13,1.087,22.192,2.173,12.475,3.91L14.001,2.836z
				"/>
			<path fill="#00A651" d="M21.072,1.192c1.534-0.873,8.368-4.171,8.368-4.171l-4.793,1.767c-2.022,1.083-2.705,2.551-4.328,3.475
				L21.072,1.192z"/>
			<path fill="#00A651" d="M26.228-0.312c1.534-0.874,6.964-3.67,6.964-3.67l-2.589,1.452c-1.426,1.029-3.505,2.363-5.128,3.288
				L26.228-0.312z"/>
			<path fill="#00A651" d="M31.505-1.386c0.96-0.523,6.026-1.951,6.026-1.951l-3.259,0.638c-0.869,0.628-2.154,1.434-3.17,1.987
				L31.505-1.386z"/>
			<path fill="#00A651" d="M36.391-2.538c1.114-0.331,5.598-1.87,5.598-1.87l-2.959,1.129c-0.975,0.457-2.442,1.009-3.622,1.359
				L36.391-2.538z"/>
			<path fill="#00A651" d="M28.411-0.611c1.534-0.873,6.964-3.669,6.964-3.669l-3.649,1.72c-1.426,1.029-2.446,2.095-4.069,3.02
				L28.411-0.611z"/>
			<path fill="#00A651" d="M25.492,2.69c1.513,0.024,6.589,0.35,6.589,0.35l-3.658,0.007c-1.938,0.005-4.14-1.195-5.742-1.222
				L25.492,2.69z"/>
			<path fill="#00A651" d="M29.367,1.99c2.083-0.011,7.31-0.459,7.31-0.459l-3.492,0.034c-2.175-0.148-5.164-0.243-7.368-0.232
				L29.367,1.99z"/>
			<path fill="#00A651" d="M33.003-0.619c1.28-0.109,6.344-1.54,6.344-1.54l-2.9,1.1c-1.355,0.001-3.205,0.079-4.56,0.195
				L33.003-0.619z"/>
			<path fill="#00A651" d="M29.875,0.511c1.708,0.008,7.645-0.83,7.645-0.83l-4.13,0.912c-1.788-0.137-3.138-0.463-4.945-0.471
				L29.875,0.511z"/>
			<path fill="#00A651" d="M17.682,1.69c1.534-0.873,8.573-4.93,8.573-4.93l-4.998,2.525c-2.022,1.084-2.705,2.551-4.328,3.475
				L17.682,1.69z"/>
			<path fill="#00A651" d="M15.312,1.829c1.533-0.874,8.573-4.93,8.573-4.93l-4.999,2.525c-2.022,1.083-2.705,2.55-4.328,3.475
				L15.312,1.829z"/>
			<path fill="#00A651" d="M19.669,3.057c1.452,0.17,9.72,0.986,9.72,0.986l-5.241-0.007c-1.871-0.181-4.066-1.279-5.604-1.459
				L19.669,3.057z"/>
			<path fill="#00A651" d="M17.654,4.065c1.658,0.16,9.295,0.937,9.295,0.937l-5.242-0.249C19.556,4.6,18.268,3.61,16.512,3.44
				L17.654,4.065z"/>
		</g>
		<g>
			<path fill="#00A651" d="M-16.823,0.146C-9.209,6.411-2.933,16.13-2.933,16.13C-7.012,7.951-10.858,4.172-17.184-1.957
				L-16.823,0.146z"/>
			<path fill="#00A651" d="M-12.52,5.146c0.525,1.819,3.334,9.083,3.334,9.083l-2.402-4.317c-0.747-2.303-0.128-4.646-0.684-6.572
				L-12.52,5.146z"/>
			<path fill="#00A651" d="M-9.624,9.226c0.525,1.82,2.619,7.842,2.619,7.842l-0.904-3.041c-0.317-2.001-0.91-4.681-1.466-6.607
				L-9.624,9.226z"/>
			<path fill="#00A651" d="M-6.292,12.74c0.347,1.105,3.232,5.044,3.232,5.044l-2.078-2.135c-0.193-1.22-0.574-2.851-0.942-4.021
				L-6.292,12.74z"/>
			<path fill="#00A651" d="M-3.331,16.218c0.621,0.89,2.957,4.768,2.957,4.768l-1.453-2.719c-0.411-1.018-1.138-2.355-1.795-3.298
				L-3.331,16.218z"/>
			<path fill="#00A651" d="M-8.131,10.474c0.525,1.819,2.619,7.841,2.619,7.841l-1.532-3.82c-0.317-2-0.283-3.9-0.839-5.827
				L-8.131,10.474z"/>
			<path fill="#00A651" d="M-7.835,4.678C-6.617,5.212-2.339,6.66-2.339,6.66l-2.892-1.387c-1.532-0.735-4.224,0.143-5.514-0.423
				L-7.835,4.678z"/>
			<path fill="#00A651" d="M-5.318,7.132c1.641,0.8,5.428,3.405,5.428,3.405l-2.739-1.363C-4.47,8.566-6.913,7.576-8.65,6.73
				L-5.318,7.132z"/>
			<path fill="#00A651" d="M-4.499,12.213c0.928,0.638,3.809,4.58,3.809,4.58l-1.429-2.657c-1.073-0.511-2.477-1.319-3.458-1.994
				L-4.499,12.213z"/>
			<path fill="#00A651" d="M-6.085,9.428c1.358,0.633,5.4,4.06,5.4,4.06l-2.551-2.853c-1.524-0.479-2.852-0.522-4.29-1.192
				L-6.085,9.428z"/>
			<path fill="#00A651" d="M-14.812,3.16c0.525,1.82,2.898,10.24,2.898,10.24l-1.965-5.475c-0.746-2.302-0.128-4.646-0.684-6.572
				L-14.812,3.16z"/>
			<path fill="#00A651" d="M-16.581,2.071c0.525,1.82,2.898,10.24,2.898,10.24l-1.965-5.475c-0.747-2.302-0.128-4.646-0.685-6.572
				L-16.581,2.071z"/>
			<path fill="#00A651" d="M-12.158,1.965c1.284,0.306,8.479,2.256,8.479,2.256l-4.157-1.964c-1.625-0.445-4.232,0.29-5.592-0.033
				L-12.158,1.965z"/>
			<path fill="#00A651" d="M-12.959-0.229c1.441,0.396,8.104,2.166,8.104,2.166l-4.35-1.617c-1.826-0.593-3.627,0.33-5.152-0.09
				L-12.959-0.229z"/>
		</g>
		<g>
			<path fill="#00A651" d="M-1.735,1.377c5.016,5.233,8.85,13.008,8.85,13.008C4.747,7.917,2.253,4.807-1.853-0.243L-1.735,1.377z"
				/>
			<path fill="#00A651" d="M1.003,5.443c0.254,1.415,1.776,7.109,1.776,7.109l-1.427-3.43C0.972,7.327,1.569,5.584,1.3,4.086
				L1.003,5.443z"/>
			<path fill="#00A651" d="M2.798,8.724c0.254,1.415,1.348,6.121,1.348,6.121l-0.443-2.367C3.61,10.938,3.365,8.864,3.096,7.366
				L2.798,8.724z"/>
			<path fill="#00A651" d="M4.943,11.601c0.174,0.861,1.972,4.033,1.972,4.033l-1.341-1.751c-0.057-0.938-0.22-2.201-0.405-3.113
				L4.943,11.601z"/>
			<path fill="#00A651" d="M6.825,14.427c0.384,0.715,1.793,3.807,1.793,3.807l-0.856-2.156c-0.226-0.799-0.655-1.86-1.062-2.617
				L6.825,14.427z"/>
			<path fill="#00A651" d="M3.781,9.765c0.254,1.415,1.348,6.121,1.348,6.121L4.29,12.887c-0.093-1.539,0.057-2.981-0.212-4.479
				L3.781,9.765z"/>
			<path fill="#00A651" d="M4.377,5.378c0.834,0.481,3.79,1.847,3.79,1.847L6.195,5.992C5.151,5.338,3.172,5.839,2.289,5.329
				L4.377,5.378z"/>
			<path fill="#00A651" d="M6.01,7.399c1.118,0.709,3.647,2.924,3.647,2.924L7.793,9.117C6.52,8.542,4.843,7.639,3.659,6.888
				L6.01,7.399z"/>
			<path fill="#00A651" d="M6.257,11.312c0.62,0.542,2.414,3.716,2.414,3.716L7.828,12.92c-0.731-0.455-1.679-1.155-2.335-1.729
				L6.257,11.312z"/>
			<path fill="#00A651" d="M5.311,9.096c0.927,0.565,3.583,3.42,3.583,3.42l-1.631-2.326c-1.056-0.457-2-0.573-2.981-1.172
				L5.311,9.096z"/>
			<path fill="#00A651" d="M-0.5,3.793c0.254,1.416,1.388,7.961,1.388,7.961l-1.039-4.281c-0.38-1.796,0.217-3.539-0.052-5.037
				L-0.5,3.793z"/>
			<path fill="#00A651" d="M-1.69,2.856c0.254,1.415,1.388,7.961,1.388,7.961l-1.039-4.282c-0.38-1.795,0.217-3.538-0.052-5.036
				L-1.69,2.856z"/>
			<path fill="#00A651" d="M1.472,3.049c0.896,0.312,5.9,2.239,5.9,2.239L4.537,3.539c-1.13-0.44-3.039-0.042-3.988-0.372
				L1.472,3.049z"/>
			<path fill="#00A651" d="M1.047,1.333C2.048,1.724,6.685,3.48,6.685,3.48L3.689,1.981c-1.264-0.562-2.61,0.026-3.67-0.387
				L1.047,1.333z"/>
		</g>
		<g>
			<path fill="#00A651" d="M10.392,4.123c5.327,4.498,9.139,10.947,9.139,10.947c-2.24-5.312-4.853-7.954-9.162-12.247L10.392,4.123
				z"/>
			<path fill="#00A651" d="M13.217,7.543c0.191,1.146,1.526,5.786,1.526,5.786l-1.382-2.828c-0.307-1.457,0.489-2.81,0.287-4.021
				L13.217,7.543z"/>
			<path fill="#00A651" d="M15.027,10.275c0.19,1.146,1.108,4.971,1.108,4.971l-0.34-1.917c0-1.234-0.136-2.904-0.338-4.117
				L15.027,10.275z"/>
			<path fill="#00A651" d="M17.261,12.709c0.139,0.698,1.958,3.345,1.958,3.345l-1.399-1.483c0-0.752-0.099-1.771-0.246-2.51
				L17.261,12.709z"/>
			<path fill="#00A651" d="M19.2,15.085c0.386,0.595,1.772,3.151,1.772,3.151l-0.822-1.774c-0.201-0.652-0.615-1.526-1.024-2.156
				L19.2,15.085z"/>
			<path fill="#00A651" d="M16.07,11.17c0.19,1.145,1.108,4.97,1.108,4.97l-0.746-2.446c0-1.234,0.27-2.375,0.068-3.588L16.07,11.17
				z"/>
			<path fill="#00A651" d="M17.046,7.708c0.912,0.438,4.169,1.718,4.169,1.718l-2.15-1.11c-1.139-0.589-3.417-0.316-4.382-0.78
				L17.046,7.708z"/>
			<path fill="#00A651" d="M18.758,9.426c1.219,0.638,3.934,2.567,3.934,2.567l-2.03-1.082c-1.404-0.541-3.243-1.369-4.533-2.045
				L18.758,9.426z"/>
			<path fill="#00A651" d="M18.77,12.562c0.666,0.473,2.481,3.12,2.481,3.12l-0.811-1.735c-0.798-0.41-1.825-1.03-2.529-1.53
				L18.77,12.562z"/>
			<path fill="#00A651" d="M17.849,10.734c1.012,0.511,3.828,2.959,3.828,2.959l-1.689-1.961c-1.166-0.433-2.228-0.586-3.299-1.126
				L17.849,10.734z"/>
			<path fill="#00A651" d="M11.626,6.13c0.19,1.146,1.026,6.44,1.026,6.44l-0.883-3.482c-0.307-1.457,0.489-2.81,0.287-4.021
				L11.626,6.13z"/>
			<path fill="#00A651" d="M10.342,5.306c0.19,1.146,1.027,6.44,1.027,6.44l-0.884-3.482c-0.307-1.457,0.489-2.81,0.287-4.021
				L10.342,5.306z"/>
			<path fill="#00A651" d="M13.914,5.663c0.995,0.307,6.534,2.167,6.534,2.167l-3.094-1.579c-1.251-0.423-3.442-0.229-4.495-0.553
				L13.914,5.663z"/>
			<path fill="#00A651" d="M13.549,4.267c1.108,0.376,6.245,2.077,6.245,2.077L16.5,4.954c-1.394-0.53-2.96-0.146-4.134-0.545
				L13.549,4.267z"/>
		</g>
		<g>
			<path fill="#00A651" d="M22.362,7.215c9.256,2.037,17.473,6.526,17.473,6.526C34.255,9.674,29.5,8.267,21.691,6.004L22.362,7.215
				z"/>
			<path fill="#00A651" d="M27.781,9.267c0.817,0.997,4.87,4.805,4.87,4.805l-3.222-2.087c-1.125-1.242-0.74-2.838-1.605-3.893
				L27.781,9.267z"/>
			<path fill="#00A651" d="M31.521,11.089c0.817,0.997,3.916,4.211,3.916,4.211l-1.395-1.66c-0.609-1.158-1.613-2.67-2.478-3.726
				L31.521,11.089z"/>
			<path fill="#00A651" d="M35.671,12.457c0.528,0.599,4.237,2.336,4.237,2.336l-2.581-0.817c-0.372-0.707-1.004-1.622-1.563-2.256
				L35.671,12.457z"/>
			<path fill="#00A651" d="M39.405,13.892c0.804,0.4,3.896,2.231,3.896,2.231l-1.962-1.328c-0.587-0.529-1.566-1.181-2.417-1.604
				L39.405,13.892z"/>
			<path fill="#00A651" d="M33.338,11.5c0.817,0.997,3.916,4.211,3.916,4.211l-2.191-1.99c-0.609-1.159-0.816-2.34-1.681-3.396
				L33.338,11.5z"/>
			<path fill="#00A651" d="M32.921,7.851c1.421,0.037,6.354-0.098,6.354-0.098l-3.388-0.16c-1.795-0.086-4.669,1.104-6.174,1.064
				L32.921,7.851z"/>
			<path fill="#00A651" d="M36.029,8.761c1.925,0.099,6.463,0.797,6.463,0.797l-3.215-0.183c-2.121,0.067-4.959,0.044-6.997-0.061
				L36.029,8.761z"/>
			<path fill="#00A651" d="M37.593,11.701c1.112,0.17,4.817,1.91,4.817,1.91l-1.928-1.297c-1.256-0.057-2.918-0.218-4.095-0.398
				L37.593,11.701z"/>
			<path fill="#00A651" d="M35.475,10.362c1.589,0.064,6.515,1.207,6.515,1.207l-3.199-1.146c-1.753,0.071-3.232,0.362-4.914,0.295
				L35.475,10.362z"/>
			<path fill="#00A651" d="M24.982,8.593c0.817,0.997,4.534,5.624,4.534,5.624l-2.885-2.907c-1.125-1.241-0.741-2.837-1.605-3.892
				L24.982,8.593z"/>
			<path fill="#00A651" d="M22.879,8.346c0.817,0.997,4.534,5.624,4.534,5.624l-2.885-2.906c-1.125-1.242-0.741-2.838-1.605-3.893
				L22.879,8.346z"/>
			<path fill="#00A651" d="M27.773,7.216c1.465-0.12,9.7-0.646,9.7-0.646l-4.866-0.213c-1.861,0.115-4.66,1.196-6.21,1.324
				L27.773,7.216z"/>
			<path fill="#00A651" d="M26.603,6.055c1.649-0.102,9.272-0.611,9.272-0.611L30.84,5.49c-2.103,0.074-3.983,1.076-5.729,1.185
				L26.603,6.055z"/>
		</g>
	</g>
</symbol>
<g id="Background">
</g>
<g id="Guides">
</g>
<g id="Foreground">
</g>
<g id="sand_in_water">
	<g>
		<g>
			<path fill-rule="evenodd" clip-rule="evenodd" fill="#808285" d="M20.875,32.635v9.539c-0.76,0.127-1.688,0.296-2.786,0.296
				c-7.218,0-9.287-4.644-9.287-10.173c0-4.981,1.604-9.878,8.4-9.878c3.462,0,5.783,1.098,7.304,2.026
				c0.168,0.084,0.844,0.591,1.013,0.591c0.042,0,0.084,0,0.295-0.127l1.14-0.549c0.423-0.21,0.423-0.21,0.423-0.717l-0.212-3.039
				c-0.042-0.718-0.042-0.803-0.802-1.013c-0.971-0.254-4.517-1.056-8.526-1.056c-8.401,0-17.308,4.263-17.308,14.69
				c0,2.744,0.633,5.867,2.786,8.358c3.166,3.63,7.598,4.643,13.339,4.643c4.011,0,8.021-0.464,11.946-1.393V32.635H20.875z"/>
			<path fill-rule="evenodd" clip-rule="evenodd" fill="#A7A9AC" d="M49.284,28.402c0-2.533-0.212-4.548-1.646-6.606
				c-1.983-2.87-5.488-3.334-7.514-3.334c-4.854,0-10.849,2.66-10.849,9.984c0,5.339,3.25,8.759,8.906,8.759
				c3.082,0,6.079-0.718,8.907-1.983c1.351-0.634,1.52-0.676,1.52-0.93c0-0.168-0.169-0.507-0.169-0.549l-1.013-2.371l-0.338-0.084
				c-1.393,0.763-3.926,1.526-5.741,1.526c-3.799,0-4.179-2.8-4.305-3.691L49.284,28.402z M36.747,26.039
				c0.042-1.723,0.337-4.243,2.701-4.243c2.068,0,2.617,1.806,2.701,3.78L36.747,26.039z"/>
			<path fill-rule="evenodd" clip-rule="evenodd" fill="#A7A9AC" d="M61.652,18.461c-2.913,0-11.44,1.604-11.44,9.583
				c0,1.983,0.591,4.39,2.153,6.163c1.562,1.73,3.968,2.997,8.653,2.997c8.654,0,12.2-4.391,12.2-9.414
				c0-1.14-0.17-3.419-1.773-5.614C68.87,18.673,64.859,18.461,61.652,18.461z M65.239,29.015c0,4.095-1.562,4.686-3.081,4.686
				c-3.842,0-3.968-6.459-3.968-7.218c0-2.069,0.76-4.518,2.913-4.518c0.886,0,2.279,0,3.334,2.575
				C64.944,25.765,65.239,27.411,65.239,29.015z"/>
			<path fill-rule="evenodd" clip-rule="evenodd" fill="#808285" d="M99.216,20.393c0.084-0.422,0.084-0.549-0.127-0.633
				c-0.211-0.127-4.011-1.225-8.4-1.225c-11.693,0-16.886,7.135-16.886,14.353c0,5.234,2.617,8.949,5.741,10.976
				c2.068,1.309,4.939,2.363,10.089,2.363c4.264,0,7.641-0.971,8.274-1.182c0.38-0.127,0.422-0.211,0.507-0.802l0.464-3.04
				c0.042-0.422,0.042-0.464-0.296-0.675l-0.675-0.423c-0.085-0.041-0.254-0.126-0.338-0.126c-0.127,0-0.633,0.464-0.76,0.507
				c-2.786,1.814-5.319,1.814-6.036,1.814c-7.515,0-8.738-6.627-8.738-10.933c0-7.261,3.546-8.865,7.388-8.865
				c3.461,0,5.825,1.224,6.753,1.731c0.043,0.042,0.972,0.549,0.972,0.549c0.084,0,0.126-0.043,0.422-0.169l0.802-0.422
				c0.423-0.211,0.423-0.253,0.507-0.717L99.216,20.393z"/>
			<path fill-rule="evenodd" clip-rule="evenodd" fill="#A7A9AC" d="M122.133,32.477l-0.169-0.169
				c-0.972,0.38-2.153,0.633-2.787,0.633c-1.055,0-1.013-0.464-0.971-2.702l0.085-4.686c0.084-3.714-0.043-7.091-7.937-7.091
				c-1.688,0-4.728,0-8.442,1.435c-1.098,0.38-1.225,0.464-1.182,1.225l0.211,2.828l1.688,0.591
				c0.718-0.802,2.026-2.364,5.572-2.364c0.591,0,1.983,0.043,2.617,0.845c0.337,0.422,0.337,0.506,0.422,2.532
				c-9.751,1.436-11.989,2.195-11.989,6.459c0,4.095,2.703,5.192,5.361,5.192c1.351,0,4.222-0.337,7.177-1.478
				c0.211,0.465,0.675,1.646,3.082,1.646c2.912,0,6.458-1.73,6.585-1.773c0.633-0.338,0.676-0.379,0.676-1.14V32.477z
				 M111.326,32.561c-0.423,0.169-1.604,0.506-2.955,0.506c-1.604,0-1.984-0.379-1.984-2.152c0-1.266,0-1.857,4.939-2.279V32.561z"
				/>
			<path fill-rule="evenodd" clip-rule="evenodd" fill="#A7A9AC" d="M143.778,27.537c0-2.997,0-4.77-0.591-6.121
				c-1.098-2.364-3.335-2.955-4.77-2.955c-1.267,0-3.885,0.253-7.895,2.575l0.085-2.111h-7.303V36.74h7.303V25.131
				c1.14-0.718,2.617-1.351,3.968-1.351c1.941,0,1.941,1.393,1.941,3.926v9.034h7.261V27.537z"/>
			<polygon fill-rule="evenodd" clip-rule="evenodd" fill="#808285" points="142.979,19 153.742,45.763 159.314,45.763 172.4,19 
				166.152,19 158.428,37.7 151.759,19 			"/>
			<rect x="173.494" y="18.926" fill-rule="evenodd" clip-rule="evenodd" fill="#808285" width="7.261" height="17.814"/>
			<polygon fill-rule="evenodd" clip-rule="evenodd" fill="#808285" points="182.782,18.926 182.782,22.556 191.521,22.556 
				181.727,34.207 181.727,36.74 199.794,36.74 200.386,33.109 190.846,33.109 200.386,21.712 200.386,18.926 			"/>
		</g>
		<g>
			<defs>
				<polygon id="SVGID_1_" points="49.839,22.17 47.534,12.418 38.59,7.885 59.062,3.337 				"/>
			</defs>
			<clipPath id="SVGID_2_">
				<use xlink:href="#SVGID_1_"  overflow="visible"/>
			</clipPath>
			<g clip-path="url(#SVGID_2_)">
				
					<polygon fill-rule="evenodd" clip-rule="evenodd" fill="none" stroke="#DA521F" stroke-width="2" stroke-miterlimit="3.8637" points="
					49.839,22.17 47.534,12.418 38.59,7.885 59.062,3.337 				"/>
				
					<polygon fill-rule="evenodd" clip-rule="evenodd" fill="#DA521F" stroke="#DA521F" stroke-width="0.2079" stroke-miterlimit="3.8637" points="
					47.534,12.418 38.59,7.885 59.062,3.337 				"/>
			</g>
		</g>
	</g>
</g>
<g id="IAM">
</g>
</svg>
