<?xml version="1.0" encoding="UTF-8"?>
<!DOCTYPE svg PUBLIC "-//W3C//DTD SVG 1.1//EN" "http://www.w3.org/Graphics/SVG/1.1/DTD/svg11.dtd">
<!-- Creator: CorelDRAW X6 -->
<svg xmlns="http://www.w3.org/2000/svg" xml:space="preserve" width="70mm" height="10mm" version="1.1" style="shape-rendering:geometricPrecision; text-rendering:geometricPrecision; image-rendering:optimizeQuality; fill-rule:evenodd; clip-rule:evenodd"
viewBox="0 0 7000 1000"
 xmlns:xlink="http://www.w3.org/1999/xlink">
 <defs>
  <style type="text/css">
   <![CDATA[
    .fil1 {fill:#373435}
    .fil0 {fill:#ED3237}
   ]]>
  </style>
 </defs>
 <g id="Layer_x0020_1">
  <metadata id="CorelCorpID_0Corel-Layer"/>
  <polygon class="fil0" points="465,724 465,223 215,223 215,724 "/>
  <path class="fil0" d="M898 473l-5 -2c-9,-4 -8,-11 -6,-16 1,-5 15,-54 15,-54 0,0 -37,8 -45,10 -7,1 -9,-3 -12,-7 -2,-5 -11,-27 -11,-27 0,0 -45,50 -46,51 -8,8 -17,2 -15,-7 1,-9 23,-108 23,-108 0,0 -24,14 -32,19 -8,4 -12,4 -16,-4 -4,-8 -34,-67 -34,-67l0 0c0,0 -29,59 -33,67 -5,8 -9,8 -17,4 -7,-5 -31,-19 -31,-19 0,0 21,99 23,108 1,9 -7,15 -16,7 -1,-1 -46,-51 -46,-51 0,0 -9,22 -11,27 -2,4 -4,8 -11,7 -9,-2 -47,-10 -47,-10 0,0 16,49 17,54 1,5 3,12 -6,16l-5 2 367 0z"/>
  <path class="fil0" d="M531 473l-9 5c0,0 85,73 88,76 3,2 9,5 5,17 -5,13 -11,30 -11,30 0,0 79,-16 87,-18 9,-2 16,1 16,10 0,8 -3,92 -3,92l21 0c0,0 -3,-84 -3,-92 0,-9 7,-12 15,-10 9,2 87,18 87,18 0,0 -6,-17 -10,-30 -4,-12 2,-15 4,-17 3,-3 88,-76 88,-76l-8 -5 -367 0z"/>
  <path class="fil0" d="M725 685c0,0 -3,-84 -3,-92 0,-9 7,-12 15,-10 9,2 87,18 87,18 0,0 -6,-17 -10,-30 -4,-12 2,-15 4,-17 3,-3 88,-76 88,-76l-13 -7c-9,-4 -8,-11 -6,-16 1,-5 15,-54 15,-54 0,0 -37,8 -45,10 -7,1 -9,-3 -12,-7 -2,-5 -11,-27 -11,-27 0,0 -45,50 -46,51 -8,8 -17,2 -15,-7 1,-9 23,-108 23,-108 0,0 -24,14 -32,19 -8,4 -12,4 -16,-4 -4,-8 -34,-67 -34,-67l0 0c0,0 -29,59 -33,67 -5,8 -9,8 -17,4 -7,-5 -31,-19 -31,-19 0,0 21,99 23,108 1,9 -7,15 -16,7 -1,-1 -46,-51 -46,-51 0,0 -9,22 -11,27 -2,4 -4,8 -11,7 -9,-2 -47,-10 -47,-10 0,0 16,49 17,54 1,5 3,12 -6,16l-14 7c0,0 85,73 88,76 3,2 9,5 5,17 -5,13 -11,30 -11,30 0,0 79,-16 87,-18 9,-2 16,1 16,10 0,8 -3,92 -3,92l21 0z"/>
  <polygon class="fil0" points="1215,724 1215,223 965,223 965,724 "/>
  <path class="fil1" d="M1788 315c22,0 42,-6 42,-33 0,-17 -10,-31 -33,-31l-60 0 0 64 51 0zm-75 -84l86 0c34,0 55,19 55,48 0,21 -10,39 -32,46l0 0c21,4 26,20 27,37 2,18 1,38 11,50l-27 0c-7,-7 -3,-26 -6,-44 -3,-18 -7,-33 -31,-33l-59 0 0 77 -24 0 0 -181z"/>
  <path class="fil1" d="M1975 334c-1,-20 -17,-37 -38,-37 -22,0 -36,17 -37,37l75 0zm21 37c-6,29 -27,45 -56,45 -42,0 -62,-29 -63,-70 0,-39 26,-68 61,-68 47,0 61,44 60,75l-98 0c-1,23 12,43 40,43 18,0 31,-8 34,-25l22 0z"/>
  <path class="fil1" d="M2033 371c1,19 18,25 36,25 13,0 31,-3 31,-19 0,-17 -21,-20 -43,-24 -21,-5 -42,-12 -42,-38 0,-26 26,-37 49,-37 29,0 52,9 53,41l-21 0c-2,-17 -16,-22 -31,-22 -13,0 -28,4 -28,17 0,15 23,18 43,23 22,5 43,12 43,37 0,31 -29,42 -56,42 -29,0 -54,-12 -55,-45l21 0z"/>
  <path class="fil1" d="M2160 371c1,19 18,25 36,25 13,0 31,-3 31,-19 0,-17 -21,-20 -42,-24 -22,-5 -43,-12 -43,-38 0,-26 26,-37 49,-37 29,0 52,9 53,41l-21 0c-2,-17 -16,-22 -31,-22 -13,0 -28,4 -28,17 0,15 23,18 43,23 22,5 43,12 43,37 0,31 -29,42 -56,42 -29,0 -54,-12 -55,-45l21 0z"/>
  <path class="fil1" d="M2331 396c22,0 41,-17 41,-49 0,-32 -19,-50 -41,-50 -23,0 -41,18 -41,50 0,32 18,49 41,49zm0 -118c41,0 64,30 64,69 0,38 -23,69 -64,69 -42,0 -64,-31 -64,-69 0,-39 22,-69 64,-69z"/>
  <path class="fil1" d="M2529 412l-21 0 0 -20 0 0c-9,16 -24,24 -43,24 -34,0 -45,-20 -45,-48l0 -87 22 0 0 89c0,16 10,26 26,26 26,0 39,-17 39,-41l0 -74 22 0 0 131z"/>
  <path class="fil1" d="M2560 281l21 0 0 28 0 0c11,-21 25,-32 49,-31l0 23c-35,0 -48,20 -48,53l0 58 -22 0 0 -131z"/>
  <path class="fil1" d="M2735 323c-3,-16 -15,-26 -33,-26 -31,0 -40,25 -40,51 0,25 10,48 38,48 21,0 33,-12 36,-32l22 0c-5,32 -25,52 -58,52 -40,0 -61,-28 -61,-68 0,-39 20,-70 62,-70 29,0 53,14 56,45l-22 0z"/>
  <path class="fil1" d="M2873 334c-1,-20 -16,-37 -38,-37 -22,0 -36,17 -37,37l75 0zm21 37c-6,29 -27,45 -56,45 -42,0 -62,-29 -63,-70 0,-39 26,-68 62,-68 46,0 60,44 59,75l-98 0c-1,23 12,43 41,43 18,0 30,-8 34,-25l21 0z"/>
  <path class="fil1" d="M2932 371c1,19 17,25 35,25 14,0 32,-3 32,-19 0,-17 -22,-20 -43,-24 -21,-5 -43,-12 -43,-38 0,-26 26,-37 49,-37 29,0 52,9 54,41l-22 0c-1,-17 -16,-22 -30,-22 -13,0 -28,4 -28,17 0,15 23,18 43,23 21,5 43,12 43,37 0,31 -30,42 -56,42 -30,0 -55,-12 -56,-45l22 0z"/>
  <path class="fil1" d="M3116 281l20 0 0 21 1 0c9,-16 24,-24 43,-24 34,0 45,20 45,48l0 86 -22 0 0 -88c0,-16 -10,-27 -26,-27 -27,0 -39,18 -39,41l0 74 -22 0 0 -131z"/>
  <path class="fil1" d="M3339 345c-9,6 -25,6 -39,9 -15,2 -27,7 -27,23 0,14 12,19 26,19 28,0 40,-17 40,-29l0 -22zm35 67c-4,2 -9,4 -16,4 -11,0 -18,-7 -18,-21 -12,14 -28,21 -46,21 -24,0 -44,-11 -44,-37 0,-30 22,-36 45,-41 24,-4 44,-3 44,-19 0,-19 -16,-22 -29,-22 -19,0 -32,6 -33,25l-22 0c2,-32 27,-44 56,-44 24,0 49,5 49,36l0 68c0,10 0,14 7,14 2,0 4,0 7,-1l0 17z"/>
  <path class="fil1" d="M3424 281l26 0 0 19 -26 0 0 82c0,10 3,11 16,11l10 0 0 19 -17 0c-22,0 -31,-4 -31,-28l0 -84 -22 0 0 -19 22 0 0 -39 22 0 0 39z"/>
  <path class="fil1" d="M3582 412l-20 0 0 -20 0 0c-9,16 -24,24 -43,24 -35,0 -45,-20 -45,-48l0 -87 21 0 0 89c0,16 11,26 27,26 26,0 39,-17 39,-41l0 -74 21 0 0 131z"/>
  <path class="fil1" d="M3614 281l21 0 0 28 0 0c11,-21 25,-32 48,-31l0 23c-34,0 -47,20 -47,53l0 58 -22 0 0 -131z"/>
  <path class="fil1" d="M3791 334c-1,-20 -17,-37 -38,-37 -23,0 -36,17 -38,37l76 0zm21 37c-6,29 -27,45 -57,45 -41,0 -61,-29 -63,-70 0,-39 26,-68 62,-68 47,0 61,44 60,75l-99 0c0,23 13,43 41,43 18,0 30,-8 34,-25l22 0z"/>
  <polygon class="fil1" points="3837,231 3859,231 3859,412 3837,412 "/>
  <polygon class="fil1" points="3894,231 3915,231 3915,412 3894,412 "/>
  <path class="fil1" d="M4040 334c-1,-20 -17,-37 -38,-37 -22,0 -36,17 -37,37l75 0zm21 37c-6,29 -27,45 -56,45 -42,0 -62,-29 -63,-70 0,-39 26,-68 61,-68 47,0 61,44 60,75l-98 0c-1,23 12,43 40,43 18,0 31,-8 34,-25l22 0z"/>
  <path class="fil1" d="M4098 371c1,19 18,25 36,25 13,0 31,-3 31,-19 0,-17 -21,-20 -43,-24 -21,-5 -42,-12 -42,-38 0,-26 26,-37 49,-37 29,0 52,9 53,41l-21 0c-2,-17 -16,-22 -31,-22 -13,0 -28,4 -28,17 0,15 23,18 43,23 22,5 43,12 43,37 0,31 -29,42 -56,42 -29,0 -54,-12 -55,-45l21 0z"/>
  <path class="fil1" d="M1841 593c-5,-26 -26,-39 -51,-39 -43,0 -61,36 -61,73 0,42 18,76 61,76 32,0 50,-22 53,-52l24 0c-5,45 -33,73 -79,73 -56,0 -84,-42 -84,-95 0,-52 30,-95 86,-95 38,0 69,20 75,59l-24 0z"/>
  <path class="fil1" d="M1974 652c-8,6 -24,6 -39,8 -14,3 -26,8 -26,24 0,14 12,19 25,19 29,0 40,-17 40,-29l0 -22zm35 67c-3,2 -8,3 -15,3 -11,0 -18,-6 -18,-20 -12,14 -28,20 -47,20 -23,0 -43,-10 -43,-36 0,-30 22,-36 44,-41 24,-4 45,-3 45,-19 0,-19 -16,-22 -30,-22 -18,0 -31,6 -32,25l-22 0c1,-33 27,-44 56,-44 23,0 49,5 49,36l0 68c0,10 0,14 7,14 2,0 4,0 6,-1l0 17z"/>
  <path class="fil1" d="M2030 588l20 0 0 21 0 0c10,-16 24,-24 43,-24 35,0 45,20 45,48l0 86 -21 0 0 -89c0,-16 -10,-26 -27,-26 -26,0 -39,18 -39,41l0 74 -21 0 0 -131z"/>
  <path class="fil1" d="M2252 652c-8,6 -25,6 -39,8 -14,3 -26,8 -26,24 0,14 12,19 25,19 28,0 40,-17 40,-29l0 -22zm35 67c-4,2 -9,3 -15,3 -12,0 -19,-6 -19,-20 -12,14 -28,20 -46,20 -24,0 -43,-10 -43,-36 0,-30 22,-36 44,-41 24,-4 44,-3 44,-19 0,-19 -15,-22 -29,-22 -18,0 -32,6 -33,25l-21 0c1,-33 26,-44 55,-44 24,0 50,5 50,36l0 68c0,10 0,14 7,14 1,0 3,0 6,-1l0 17z"/>
  <path class="fil1" d="M2364 703c29,0 40,-25 40,-49 0,-26 -12,-50 -42,-50 -29,0 -39,25 -39,51 0,25 13,48 41,48zm61 16l-22 0 0 -17 -1 0c-7,14 -23,20 -41,20 -41,0 -61,-32 -61,-69 0,-37 20,-68 60,-68 13,0 33,5 42,21l1 0 0 -68 22 0 0 181z"/>
  <path class="fil1" d="M2539 652c-8,6 -25,6 -39,8 -14,3 -26,8 -26,24 0,14 12,19 25,19 28,0 40,-17 40,-29l0 -22zm35 67c-4,2 -9,3 -15,3 -12,0 -19,-6 -19,-20 -12,14 -28,20 -46,20 -24,0 -43,-10 -43,-36 0,-30 22,-36 44,-41 24,-4 44,-3 44,-19 0,-19 -15,-22 -29,-22 -18,0 -32,6 -33,25l-21 0c1,-33 26,-44 55,-44 24,0 50,5 50,36l0 68c0,10 0,14 7,14 1,0 3,0 6,-1l0 17z"/>
  <polygon class="fil1" points="4687,231 4713,231 4808,378 4809,378 4809,231 4831,231 4831,412 4805,412 4710,267 4710,267 4710,412 4687,412 "/>
  <path class="fil1" d="M4948 345c-8,6 -24,6 -39,9 -14,2 -26,7 -26,23 0,14 12,19 25,19 29,0 40,-17 40,-29l0 -22zm35 67c-3,2 -8,4 -15,4 -11,0 -18,-7 -18,-21 -12,14 -28,21 -47,21 -24,0 -43,-11 -43,-37 0,-30 22,-36 44,-41 24,-4 45,-3 45,-19 0,-19 -16,-22 -30,-22 -18,0 -31,6 -32,25l-22 0c1,-32 26,-44 56,-44 23,0 49,5 49,36l0 68c0,10 0,14 7,14 2,0 4,0 6,-1l0 17z"/>
  <path class="fil1" d="M5033 281l27 0 0 19 -27 0 0 82c0,10 3,11 17,11l10 0 0 19 -17 0c-22,0 -31,-4 -31,-28l0 -84 -23 0 0 -19 23 0 0 -39 21 0 0 39z"/>
  <path class="fil1" d="M5192 412l-20 0 0 -20 -1 0c-9,16 -24,24 -42,24 -35,0 -46,-20 -46,-48l0 -87 22 0 0 89c0,16 10,26 27,26 26,0 39,-17 39,-41l0 -74 21 0 0 131z"/>
  <path class="fil1" d="M5224 281l20 0 0 28 1 0c10,-21 25,-32 48,-31l0 23c-35,0 -48,20 -48,53l0 58 -21 0 0 -131z"/>
  <path class="fil1" d="M5391 345c-9,6 -25,6 -40,9 -14,2 -26,7 -26,23 0,14 12,19 25,19 29,0 41,-17 41,-29l0 -22zm35 67c-4,2 -9,4 -16,4 -11,0 -18,-7 -18,-21 -12,14 -28,21 -46,21 -24,0 -44,-11 -44,-37 0,-30 22,-36 45,-41 23,-4 44,-3 44,-19 0,-19 -16,-22 -29,-22 -19,0 -32,6 -33,25l-22 0c1,-32 27,-44 56,-44 23,0 49,5 49,36l0 68c0,10 0,14 7,14 2,0 4,0 7,-1l0 17z"/>
  <polygon class="fil1" points="5447,231 5468,231 5468,412 5447,412 "/>
  <path class="fil1" d="M5651 315c22,0 42,-6 42,-33 0,-17 -10,-31 -33,-31l-60 0 0 64 51 0zm-75 -84l86 0c34,0 55,19 55,48 0,21 -10,39 -32,46l0 0c21,4 26,20 27,37 2,18 1,38 11,50l-27 0c-7,-7 -3,-26 -7,-44 -2,-18 -6,-33 -30,-33l-59 0 0 77 -24 0 0 -181z"/>
  <path class="fil1" d="M5838 334c-1,-20 -17,-37 -38,-37 -23,0 -36,17 -38,37l76 0zm21 37c-6,29 -27,45 -57,45 -41,0 -61,-29 -62,-70 0,-39 25,-68 61,-68 47,0 61,44 60,75l-99 0c0,23 13,43 41,43 18,0 30,-8 34,-25l22 0z"/>
  <path class="fil1" d="M5875 371c1,33 26,45 55,45 27,0 56,-11 56,-42 0,-25 -21,-32 -43,-37 -20,-5 -43,-8 -43,-23 0,-13 15,-17 28,-17 14,0 29,5 31,22l21 0c-1,-32 -25,-41 -54,-41 -22,0 -49,11 -49,37 0,26 22,33 43,38 22,4 43,7 43,24 0,16 -18,19 -31,19 -18,0 -35,-6 -36,-25l-21 0z"/>
  <path class="fil1" d="M6067 396c22,0 41,-17 41,-49 0,-32 -19,-50 -41,-50 -23,0 -41,18 -41,50 0,32 18,49 41,49zm0 -118c41,0 63,30 63,69 0,38 -22,69 -63,69 -42,0 -64,-31 -64,-69 0,-39 22,-69 64,-69z"/>
  <path class="fil1" d="M6264 412l-20 0 0 -20 0 0c-9,16 -24,24 -43,24 -35,0 -45,-20 -45,-48l0 -87 21 0 0 89c0,16 11,26 27,26 26,0 39,-17 39,-41l0 -74 21 0 0 131z"/>
  <path class="fil1" d="M6296 281l21 0 0 28 0 0c11,-21 25,-32 48,-31l0 23c-34,0 -47,20 -47,53l0 58 -22 0 0 -131z"/>
  <path class="fil1" d="M6471 323c-4,-16 -15,-26 -33,-26 -31,0 -41,25 -41,51 0,25 11,48 39,48 21,0 33,-12 36,-32l22 0c-5,32 -25,52 -58,52 -40,0 -61,-28 -61,-68 0,-39 20,-70 61,-70 30,0 54,14 57,45l-22 0z"/>
  <path class="fil1" d="M6609 334c-1,-20 -16,-37 -38,-37 -22,0 -36,17 -37,37l75 0zm21 37c-6,29 -27,45 -56,45 -42,0 -62,-29 -63,-70 0,-39 26,-68 62,-68 46,0 60,44 59,75l-98 0c-1,23 12,43 41,43 17,0 30,-8 34,-25l21 0z"/>
  <path class="fil1" d="M6668 371c0,19 17,25 35,25 13,0 32,-3 32,-19 0,-17 -22,-20 -43,-24 -22,-5 -43,-12 -43,-38 0,-26 26,-37 49,-37 29,0 52,9 54,41l-22 0c-1,-17 -16,-22 -30,-22 -13,0 -28,4 -28,17 0,15 23,18 43,23 21,5 43,12 43,37 0,31 -30,42 -56,42 -30,0 -55,-12 -56,-45l22 0z"/>
  <path class="fil1" d="M4815 593c-5,-26 -26,-39 -51,-39 -43,0 -62,36 -62,73 0,42 19,76 62,76 32,0 50,-22 53,-52l24 0c-5,45 -33,73 -79,73 -56,0 -84,-42 -84,-95 0,-52 30,-95 86,-95 38,0 69,20 75,59l-24 0z"/>
  <path class="fil1" d="M4948 652c-8,6 -24,6 -39,8 -14,3 -26,8 -26,24 0,14 12,19 25,19 29,0 40,-17 40,-29l0 -22zm35 67c-3,2 -8,3 -15,3 -11,0 -18,-6 -18,-20 -12,14 -28,20 -47,20 -24,0 -43,-10 -43,-36 0,-30 22,-36 44,-41 24,-4 45,-3 45,-19 0,-19 -16,-22 -30,-22 -18,0 -31,6 -32,25l-22 0c1,-33 26,-44 56,-44 23,0 49,5 49,36l0 68c0,10 0,14 7,14 2,0 4,0 6,-1l0 17z"/>
  <path class="fil1" d="M5003 588l21 0 0 21 0 0c9,-16 24,-24 43,-24 34,0 45,20 45,48l0 86 -21 0 0 -89c0,-16 -11,-26 -27,-26 -26,0 -39,18 -39,41l0 74 -22 0 0 -131z"/>
  <path class="fil1" d="M5226 652c-8,6 -25,6 -39,8 -14,3 -27,8 -27,24 0,14 13,19 26,19 28,0 40,-17 40,-29l0 -22zm35 67c-4,2 -9,3 -16,3 -11,0 -18,-6 -18,-20 -12,14 -28,20 -46,20 -24,0 -43,-10 -43,-36 0,-30 22,-36 44,-41 24,-4 44,-3 44,-19 0,-19 -15,-22 -29,-22 -18,0 -32,6 -33,25l-21 0c1,-33 26,-44 55,-44 24,0 49,5 49,36l0 68c0,10 0,14 7,14 2,0 4,0 7,-1l0 17z"/>
  <path class="fil1" d="M5337 703c29,0 41,-25 41,-49 0,-26 -12,-50 -42,-50 -29,0 -39,25 -39,51 0,25 12,48 40,48zm61 16l-21 0 0 -17 -1 0c-7,14 -24,20 -42,20 -40,0 -60,-32 -60,-69 0,-37 20,-68 60,-68 13,0 33,5 42,21l1 0 0 -68 21 0 0 181z"/>
  <path class="fil1" d="M5513 652c-8,6 -25,6 -39,8 -14,3 -27,8 -27,24 0,14 13,19 26,19 28,0 40,-17 40,-29l0 -22zm35 67c-4,2 -9,3 -16,3 -11,0 -18,-6 -18,-20 -12,14 -28,20 -46,20 -24,0 -43,-10 -43,-36 0,-30 22,-36 44,-41 24,-4 44,-3 44,-19 0,-19 -15,-22 -29,-22 -18,0 -32,6 -33,25l-21 0c1,-33 26,-44 55,-44 24,0 50,5 50,36l0 68c0,10 0,14 6,14 2,0 4,0 7,-1l0 17z"/>
 </g>
</svg>
