<?xml version="1.0" encoding="UTF-8"?>
<!DOCTYPE svg PUBLIC "-//W3C//DTD SVG 1.1//EN" "http://www.w3.org/Graphics/SVG/1.1/DTD/svg11.dtd">
<!-- Creator: CorelDRAW X6 -->
<svg xmlns="http://www.w3.org/2000/svg" xml:space="preserve" width="70mm" height="10mm" version="1.1" style="shape-rendering:geometricPrecision; text-rendering:geometricPrecision; image-rendering:optimizeQuality; fill-rule:evenodd; clip-rule:evenodd"
viewBox="0 0 7000 1000"
 xmlns:xlink="http://www.w3.org/1999/xlink">
 <defs>
  <style type="text/css">
   <![CDATA[
    .fil1 {fill:#373435}
    .fil0 {fill:#ED3237}
   ]]>
  </style>
 </defs>
 <g id="Layer_x0020_1">
  <metadata id="CorelCorpID_0Corel-Layer"/>
  <polygon class="fil0" points="460,743 460,243 210,243 210,743 "/>
  <path class="fil0" d="M893 493l-5 -3c-9,-4 -7,-11 -6,-16 1,-4 15,-53 15,-53 0,0 -36,8 -45,9 -7,1 -9,-2 -11,-7 -2,-4 -11,-26 -11,-26 0,0 -45,50 -46,51 -9,8 -17,2 -16,-8 2,-8 23,-108 23,-108 0,0 -23,15 -31,19 -8,5 -12,4 -17,-3 -4,-8 -33,-67 -33,-67l0 0c0,0 -30,59 -34,67 -4,7 -8,8 -16,3 -8,-4 -32,-19 -32,-19 0,0 22,100 23,108 2,10 -7,16 -15,8 -1,-1 -46,-51 -46,-51 0,0 -9,22 -11,26 -3,5 -5,8 -12,7 -8,-1 -47,-9 -47,-9 0,0 16,49 17,53 2,5 3,12 -6,16l-5 3 367 0z"/>
  <path class="fil0" d="M526 493l-8 4c0,0 85,74 88,76 2,3 8,5 4,18 -4,12 -10,29 -10,29 0,0 78,-16 87,-17 8,-2 15,1 15,9 0,8 -3,93 -3,93l21 0c0,0 -3,-85 -3,-93 0,-8 7,-11 16,-9 8,1 87,17 87,17 0,0 -6,-17 -10,-29 -5,-13 1,-15 4,-18 3,-2 88,-76 88,-76l-9 -4 -367 0z"/>
  <path class="fil0" d="M720 705c0,0 -3,-85 -3,-93 0,-8 7,-11 16,-9 8,1 87,17 87,17 0,0 -6,-17 -10,-29 -5,-13 1,-15 4,-18 3,-2 88,-76 88,-76l-14 -7c-9,-4 -7,-11 -6,-16 1,-4 15,-53 15,-53 0,0 -36,8 -45,9 -7,1 -9,-2 -11,-7 -2,-4 -11,-26 -11,-26 0,0 -45,50 -46,51 -9,8 -17,2 -16,-8 2,-8 23,-108 23,-108 0,0 -23,15 -31,19 -8,5 -12,4 -17,-3 -4,-8 -33,-67 -33,-67l0 0c0,0 -30,59 -34,67 -4,7 -8,8 -16,3 -8,-4 -32,-19 -32,-19 0,0 22,100 23,108 2,10 -7,16 -15,8 -1,-1 -46,-51 -46,-51 0,0 -9,22 -11,26 -3,5 -5,8 -12,7 -8,-1 -47,-9 -47,-9 0,0 16,49 17,53 2,5 3,12 -6,16l-13 7c0,0 85,74 88,76 2,3 8,5 4,18 -4,12 -10,29 -10,29 0,0 78,-16 87,-17 8,-2 15,1 15,9 0,8 -3,93 -3,93l21 0z"/>
  <polygon class="fil0" points="1211,743 1211,243 961,243 961,743 "/>
  <path class="fil1" d="M4348 334c23,0 42,-6 42,-32 0,-18 -9,-31 -32,-31l-60 0 0 63 50 0zm-74 -83l85 0c34,0 56,18 56,47 0,22 -10,40 -32,46l0 1c21,4 25,19 27,37 2,18 1,37 11,50l-27 0c-7,-7 -3,-27 -7,-45 -2,-18 -7,-33 -30,-33l-59 0 0 78 -24 0 0 -181z"/>
  <path class="fil1" d="M4536 354c-1,-21 -17,-37 -38,-37 -23,0 -36,17 -38,37l76 0zm21 36c-6,29 -27,45 -57,45 -42,0 -61,-29 -63,-69 0,-39 26,-68 62,-68 47,0 61,43 60,75l-99 0c-1,23 12,43 41,43 18,0 30,-9 34,-26l22 0z"/>
  <path class="fil1" d="M4594 391c1,19 18,25 35,25 14,0 32,-3 32,-20 0,-16 -21,-19 -43,-24 -21,-5 -43,-12 -43,-37 0,-26 26,-37 49,-37 29,0 52,9 54,41l-21 0c-2,-17 -17,-22 -31,-22 -13,0 -28,3 -28,16 0,16 23,18 43,23 22,5 43,12 43,38 0,31 -29,41 -56,41 -29,0 -54,-12 -56,-44l22 0z"/>
  <path class="fil1" d="M4721 391c1,19 18,25 35,25 14,0 32,-3 32,-20 0,-16 -21,-19 -43,-24 -21,-5 -43,-12 -43,-37 0,-26 26,-37 49,-37 29,0 52,9 54,41l-21 0c-2,-17 -17,-22 -31,-22 -13,0 -28,3 -28,16 0,16 23,18 43,23 22,5 43,12 43,38 0,31 -29,41 -56,41 -29,0 -54,-12 -56,-44l22 0z"/>
  <path class="fil1" d="M4892 416c22,0 40,-18 40,-50 0,-32 -18,-49 -40,-49 -23,0 -41,17 -41,49 0,32 18,50 41,50zm0 -118c41,0 63,30 63,68 0,39 -22,69 -63,69 -42,0 -64,-30 -64,-69 0,-38 22,-68 64,-68z"/>
  <path class="fil1" d="M5089 432l-20 0 0 -21 0 0c-10,16 -24,24 -43,24 -35,0 -45,-20 -45,-48l0 -86 21 0 0 89c0,16 10,26 27,26 26,0 39,-18 39,-41l0 -74 21 0 0 131z"/>
  <path class="fil1" d="M5121 301l20 0 0 27 1 0c10,-21 25,-31 48,-30l0 22c-35,0 -47,20 -47,54l0 58 -22 0 0 -131z"/>
  <path class="fil1" d="M5318 343c-3,-31 -27,-45 -57,-45 -41,0 -62,31 -62,70 0,39 22,67 62,67 33,0 53,-19 58,-51l-22 0c-3,20 -16,32 -36,32 -28,0 -39,-24 -39,-48 0,-27 10,-51 41,-51 18,0 29,9 33,26l22 0z"/>
  <path class="fil1" d="M5434 354c-1,-21 -16,-37 -38,-37 -22,0 -36,17 -37,37l75 0zm21 36c-6,29 -27,45 -56,45 -42,0 -62,-29 -63,-69 0,-39 26,-68 62,-68 46,0 60,43 59,75l-98 0c-1,23 12,43 41,43 17,0 30,-9 34,-26l21 0z"/>
  <path class="fil1" d="M5492 391c1,19 18,25 36,25 13,0 32,-3 32,-20 0,-16 -22,-19 -43,-24 -22,-5 -43,-12 -43,-37 0,-26 26,-37 49,-37 29,0 52,9 54,41l-22 0c-2,-17 -16,-22 -30,-22 -13,0 -28,3 -28,16 0,16 22,18 42,23 22,5 43,12 43,38 0,31 -29,41 -55,41 -30,0 -55,-12 -56,-44l21 0z"/>
  <path class="fil1" d="M5677 301l20 0 0 20 1 0c9,-16 24,-23 42,-23 35,0 46,19 46,48l0 86 -22 0 0 -89c0,-16 -10,-26 -27,-26 -26,0 -39,17 -39,41l0 74 -21 0 0 -131z"/>
  <path class="fil1" d="M5899 364c-8,6 -24,6 -39,9 -14,3 -26,8 -26,24 0,14 12,19 25,19 29,0 40,-18 40,-30l0 -22zm35 67c-3,3 -8,4 -15,4 -11,0 -18,-6 -18,-20 -12,14 -28,20 -47,20 -23,0 -43,-11 -43,-37 0,-30 22,-36 44,-40 24,-5 45,-3 45,-20 0,-18 -16,-21 -30,-21 -18,0 -31,5 -32,25l-22 0c1,-33 26,-44 56,-44 23,0 49,5 49,36l0 67c0,10 0,15 7,15 2,0 4,0 6,-1l0 16z"/>
  <path class="fil1" d="M5984 301l27 0 0 19 -27 0 0 81c0,10 3,12 17,12l10 0 0 19 -17 0c-22,0 -31,-5 -31,-29l0 -83 -22 0 0 -19 22 0 0 -40 21 0 0 40z"/>
  <path class="fil1" d="M6143 432l-20 0 0 -21 -1 0c-9,16 -23,24 -42,24 -35,0 -45,-20 -45,-48l0 -86 21 0 0 89c0,16 10,26 27,26 26,0 39,-18 39,-41l0 -74 21 0 0 131z"/>
  <path class="fil1" d="M6175 301l20 0 0 27 1 0c10,-21 25,-31 48,-30l0 22c-35,0 -47,20 -47,54l0 58 -22 0 0 -131z"/>
  <path class="fil1" d="M6352 354c-1,-21 -17,-37 -38,-37 -23,0 -36,17 -38,37l76 0zm20 36c-5,29 -26,45 -56,45 -42,0 -62,-29 -63,-69 0,-39 26,-68 62,-68 46,0 61,43 59,75l-98 0c-1,23 12,43 41,43 18,0 30,-9 34,-26l21 0z"/>
  <polygon class="fil1" points="6398,251 6420,251 6420,432 6398,432 "/>
  <polygon class="fil1" points="6454,251 6476,251 6476,432 6454,432 "/>
  <path class="fil1" d="M6601 354c-1,-21 -17,-37 -38,-37 -23,0 -36,17 -38,37l76 0zm20 36c-5,29 -26,45 -56,45 -42,0 -61,-29 -63,-69 0,-39 26,-68 62,-68 47,0 61,43 60,75l-99 0c-1,23 12,43 41,43 18,0 30,-9 34,-26l21 0z"/>
  <path class="fil1" d="M6637 391c2,32 27,44 56,44 27,0 56,-10 56,-41 0,-26 -21,-33 -43,-38 -20,-5 -43,-7 -43,-23 0,-13 15,-16 28,-16 14,0 29,5 31,22l21 0c-2,-32 -25,-41 -54,-41 -23,0 -49,11 -49,37 0,25 22,32 43,37 22,5 43,8 43,24 0,17 -18,20 -32,20 -17,0 -34,-6 -35,-25l-22 0z"/>
  <path class="fil1" d="M4402 612c-6,-26 -26,-38 -51,-38 -43,0 -62,35 -62,73 0,41 19,76 62,76 32,0 50,-22 52,-52l24 0c-4,45 -32,72 -78,72 -56,0 -84,-41 -84,-94 0,-53 30,-96 86,-96 38,0 69,21 75,59l-24 0z"/>
  <path class="fil1" d="M4535 671c-8,6 -24,6 -39,9 -14,2 -26,8 -26,24 0,14 12,19 25,19 28,0 40,-18 40,-30l0 -22zm35 67c-4,3 -8,4 -15,4 -11,0 -19,-6 -19,-20 -11,14 -27,20 -46,20 -24,0 -43,-11 -43,-37 0,-30 22,-36 44,-40 24,-5 44,-3 44,-20 0,-18 -15,-21 -29,-21 -18,0 -32,5 -33,24l-21 0c1,-32 26,-43 56,-43 23,0 49,5 49,36l0 67c0,10 0,15 7,15 1,0 3,0 6,-1l0 16z"/>
  <path class="fil1" d="M4590 608l21 0 0 20 0 0c9,-16 24,-23 43,-23 34,0 45,19 45,48l0 86 -22 0 0 -89c0,-16 -10,-26 -26,-26 -26,0 -39,17 -39,41l0 74 -22 0 0 -131z"/>
  <path class="fil1" d="M4813 671c-9,6 -25,6 -39,9 -15,2 -27,8 -27,24 0,14 12,19 26,19 28,0 40,-18 40,-30l0 -22zm35 67c-4,3 -9,4 -16,4 -11,0 -18,-6 -18,-20 -12,14 -28,20 -46,20 -24,0 -44,-11 -44,-37 0,-30 22,-36 45,-40 24,-5 44,-3 44,-20 0,-18 -15,-21 -29,-21 -18,0 -32,5 -33,24l-22 0c2,-32 27,-43 56,-43 24,0 49,5 49,36l0 67c0,10 0,15 7,15 2,0 4,0 7,-1l0 16z"/>
  <path class="fil1" d="M4924 723c29,0 40,-25 40,-50 0,-26 -11,-49 -41,-49 -29,0 -39,25 -39,50 0,25 12,49 40,49zm61 16l-21 0 0 -18 -1 0c-7,15 -24,21 -42,21 -40,0 -60,-32 -60,-69 0,-37 20,-68 60,-68 13,0 32,5 42,20l1 0 0 -67 21 0 0 181z"/>
  <path class="fil1" d="M5100 671c-9,6 -25,6 -39,9 -15,2 -27,8 -27,24 0,14 12,19 26,19 28,0 40,-18 40,-30l0 -22zm35 67c-4,3 -9,4 -16,4 -11,0 -18,-6 -18,-20 -12,14 -28,20 -46,20 -24,0 -44,-11 -44,-37 0,-30 23,-36 45,-40 24,-5 44,-3 44,-20 0,-18 -15,-21 -29,-21 -18,0 -32,5 -33,24l-22 0c2,-32 27,-43 56,-43 24,0 49,5 49,36l0 67c0,10 0,15 7,15 2,0 4,0 7,-1l0 16z"/>
  <polygon class="fil1" points="1709,251 1734,251 1830,398 1830,398 1830,251 1853,251 1853,432 1827,432 1732,286 1732,286 1732,432 1709,432 "/>
  <path class="fil1" d="M1970 364c-8,6 -25,6 -39,9 -14,3 -27,8 -27,24 0,14 13,19 26,19 28,0 40,-18 40,-30l0 -22zm35 67c-4,3 -9,4 -15,4 -12,0 -19,-6 -19,-20 -12,14 -28,20 -46,20 -24,0 -43,-11 -43,-37 0,-30 22,-36 44,-40 24,-5 44,-3 44,-20 0,-18 -15,-21 -29,-21 -18,0 -32,5 -33,25l-21 0c1,-33 26,-44 55,-44 24,0 50,5 50,36l0 67c0,10 0,15 6,15 2,0 4,0 7,-1l0 16z"/>
  <path class="fil1" d="M2055 301l26 0 0 19 -26 0 0 81c0,10 3,12 16,12l10 0 0 19 -16 0c-23,0 -31,-5 -31,-29l0 -83 -23 0 0 -19 23 0 0 -40 21 0 0 40z"/>
  <path class="fil1" d="M2214 432l-20 0 0 -21 -1 0c-9,16 -24,24 -43,24 -34,0 -45,-20 -45,-48l0 -86 22 0 0 89c0,16 10,26 26,26 27,0 39,-18 39,-41l0 -74 22 0 0 131z"/>
  <path class="fil1" d="M2246 301l20 0 0 27 0 0c11,-21 25,-31 49,-30l0 22c-35,0 -48,20 -48,54l0 58 -21 0 0 -131z"/>
  <path class="fil1" d="M2412 364c-8,6 -24,6 -39,9 -14,3 -26,8 -26,24 0,14 12,19 25,19 29,0 40,-18 40,-30l0 -22zm35 67c-4,3 -8,4 -15,4 -11,0 -18,-6 -18,-20 -12,14 -28,20 -47,20 -24,0 -43,-11 -43,-37 0,-30 22,-36 44,-40 24,-5 44,-3 44,-20 0,-18 -15,-21 -29,-21 -18,0 -31,5 -32,25l-22 0c1,-33 26,-44 56,-44 23,0 49,5 49,36l0 67c0,10 0,15 7,15 1,0 3,0 6,-1l0 16z"/>
  <polygon class="fil1" points="2469,251 2490,251 2490,432 2469,432 "/>
  <path class="fil1" d="M2672 334c23,0 42,-6 42,-32 0,-18 -9,-31 -32,-31l-60 0 0 63 50 0zm-74 -83l85 0c34,0 55,18 55,47 0,22 -9,40 -31,46l0 1c21,4 25,19 27,37 2,18 1,37 11,50l-27 0c-7,-7 -3,-27 -7,-45 -2,-18 -7,-33 -30,-33l-59 0 0 78 -24 0 0 -181z"/>
  <path class="fil1" d="M2860 354c-1,-21 -17,-37 -38,-37 -23,0 -36,17 -38,37l76 0zm20 36c-6,29 -26,45 -56,45 -42,0 -62,-29 -63,-69 0,-39 26,-68 62,-68 46,0 61,43 59,75l-98 0c-1,23 12,43 41,43 18,0 30,-9 34,-26l21 0z"/>
  <path class="fil1" d="M2918 391c1,19 17,25 35,25 14,0 32,-3 32,-20 0,-16 -21,-19 -43,-24 -21,-5 -43,-12 -43,-37 0,-26 26,-37 49,-37 29,0 52,9 54,41l-22 0c-1,-17 -16,-22 -30,-22 -13,0 -28,3 -28,16 0,16 23,18 43,23 22,5 43,12 43,38 0,31 -29,41 -56,41 -29,0 -54,-12 -56,-44l22 0z"/>
  <path class="fil1" d="M3088 416c23,0 41,-18 41,-50 0,-32 -18,-49 -41,-49 -22,0 -41,17 -41,49 0,32 19,50 41,50zm0 -118c42,0 64,30 64,68 0,39 -22,69 -64,69 -41,0 -63,-30 -63,-69 0,-38 22,-68 63,-68z"/>
  <path class="fil1" d="M3286 432l-20 0 0 -21 -1 0c-9,16 -23,24 -42,24 -35,0 -45,-20 -45,-48l0 -86 21 0 0 89c0,16 10,26 27,26 26,0 39,-18 39,-41l0 -74 21 0 0 131z"/>
  <path class="fil1" d="M3318 301l20 0 0 27 1 0c10,-21 25,-31 48,-30l0 22c-35,0 -47,20 -47,54l0 58 -22 0 0 -131z"/>
  <path class="fil1" d="M3492 343c-3,-17 -14,-26 -32,-26 -31,0 -41,24 -41,51 0,24 11,48 38,48 21,0 34,-12 37,-32l22 0c-5,32 -25,51 -58,51 -40,0 -62,-28 -62,-67 0,-39 21,-70 62,-70 30,0 54,14 57,45l-23 0z"/>
  <path class="fil1" d="M3631 354c-1,-21 -17,-37 -38,-37 -23,0 -36,17 -38,37l76 0zm21 36c-6,29 -27,45 -56,45 -42,0 -62,-29 -63,-69 0,-39 26,-68 61,-68 47,0 61,43 60,75l-99 0c0,23 13,43 41,43 18,0 31,-9 34,-26l22 0z"/>
  <path class="fil1" d="M3689 391c1,19 18,25 36,25 13,0 31,-3 31,-20 0,-16 -21,-19 -43,-24 -21,-5 -42,-12 -42,-37 0,-26 26,-37 49,-37 29,0 52,9 53,41l-21 0c-2,-17 -16,-22 -31,-22 -13,0 -28,3 -28,16 0,16 23,18 43,23 22,5 43,12 43,38 0,31 -29,41 -56,41 -29,0 -54,-12 -55,-44l21 0z"/>
  <path class="fil1" d="M1836 612c-5,-26 -25,-38 -50,-38 -44,0 -62,35 -62,73 0,41 18,76 62,76 32,0 50,-22 52,-52l24 0c-4,45 -32,72 -78,72 -57,0 -84,-41 -84,-94 0,-53 30,-96 86,-96 38,0 69,21 75,59l-25 0z"/>
  <path class="fil1" d="M1970 671c-8,6 -25,6 -39,9 -14,2 -27,8 -27,24 0,14 13,19 26,19 28,0 40,-18 40,-30l0 -22zm35 67c-4,3 -9,4 -15,4 -12,0 -19,-6 -19,-20 -12,14 -28,20 -46,20 -24,0 -43,-11 -43,-37 0,-30 22,-36 44,-40 24,-5 44,-3 44,-20 0,-18 -15,-21 -29,-21 -18,0 -32,5 -33,24l-21 0c1,-32 26,-43 55,-43 24,0 50,5 50,36l0 67c0,10 0,15 6,15 2,0 4,0 7,-1l0 16z"/>
  <path class="fil1" d="M2025 608l20 0 0 20 1 0c9,-16 24,-23 43,-23 34,0 45,19 45,48l0 86 -22 0 0 -89c0,-16 -10,-26 -26,-26 -27,0 -39,17 -39,41l0 74 -22 0 0 -131z"/>
  <path class="fil1" d="M2248 671c-9,6 -25,6 -39,9 -15,2 -27,8 -27,24 0,14 12,19 26,19 28,0 40,-18 40,-30l0 -22zm35 67c-4,3 -9,4 -16,4 -11,0 -18,-6 -18,-20 -12,14 -28,20 -46,20 -24,0 -44,-11 -44,-37 0,-30 22,-36 45,-40 24,-5 44,-3 44,-20 0,-18 -16,-21 -29,-21 -19,0 -32,5 -33,24l-22 0c2,-32 27,-43 56,-43 24,0 49,5 49,36l0 67c0,10 0,15 7,15 2,0 4,0 7,-1l0 16z"/>
  <path class="fil1" d="M2359 723c29,0 40,-25 40,-50 0,-26 -11,-49 -41,-49 -30,0 -39,25 -39,50 0,25 12,49 40,49zm61 16l-21 0 0 -18 -1 0c-7,15 -24,21 -42,21 -40,0 -60,-32 -60,-69 0,-37 19,-68 60,-68 13,0 32,5 42,20l1 0 0 -67 21 0 0 181z"/>
  <path class="fil1" d="M2535 671c-9,6 -25,6 -39,9 -15,2 -27,8 -27,24 0,14 12,19 26,19 28,0 40,-18 40,-30l0 -22zm35 67c-4,3 -9,4 -16,4 -11,0 -18,-6 -18,-20 -12,14 -28,20 -46,20 -24,0 -44,-11 -44,-37 0,-30 22,-36 45,-40 24,-5 44,-3 44,-20 0,-18 -16,-21 -29,-21 -19,0 -32,5 -33,24l-22 0c2,-32 27,-43 56,-43 24,0 49,5 49,36l0 67c0,10 0,15 7,15 2,0 4,0 7,-1l0 16z"/>
 </g>
</svg>
